# xmcd
#
# Track frame offsets:
#	182
#	22220
#	42432
#	62535
#	74645
#	94935
#	110817
#	129362
#	145790
#	164350
#	191755
#	212150
#	230112
#	261095
#	283607
#	303917
#	323125
#	339042
#
# Disc length: 4706 seconds
#
# Revision: 0
# Processed by: cddbd v1.4PL0 Copyright (c) Steve Scherf et al.
# Submitted via: audiograbber 1.81.03
#
DISCID=15126012
DTITLE=Various Artist - Real Australian Blues Vol 3
DYEAR=1997
DGENRE=Blues
TTITLE0=Geoff Achison Band - Chance
TTITLE1=Lil'Fi and The Delta Rhthym Kings - When They Stop Talkin' About Ya
TTITLE2=Matt Corcoran - Can't Sing
TTITLE3=Tommy T-Bone and The Graveyard Shuffle - 8 Ft. Tall
TTITLE4=Marco Goldsmith - Everytime We Make Love
TTITLE5=Dutch Tidlers - Imagination Blues
TTITLE6=Doc Span and Ross Williams - Just Where I Wanna Be
TTITLE7=Lazy James Band - When Night Comes Round
TTITLE8=Andrew Cowan - Something's Wrong In Our House
TTITLE9=Whipping Post - Roll On Central
TTITLE10=Mal Eastwick - Two Loves
TTITLE11=Peter Doyle/Bruce Bongers (Duo) - Muddy Waters Mad Love
TTITLE12=Hipshooters - Introduce Yourself
TTITLE13=Hatz Fitz and The Blooze Bitz - Do Tell
TTITLE14=Third Degree - Livin' A Life This Way
TTITLE15=Damon Davies - Serious Man
TTITLE16=Lee Sappho - It's None Of My Business
TTITLE17=Midnight Special - Waiting For The Storm
EXTD=
EXTT0=
EXTT1=
EXTT2=
EXTT3=
EXTT4=
EXTT5=
EXTT6=
EXTT7=
EXTT8=
EXTT9=
EXTT10=
EXTT11=
EXTT12=
EXTT13=
EXTT14=
EXTT15=
EXTT16=
EXTT17=
PLAYORDER=
